<?xml version="1.0" encoding="utf-8"?>
<svg viewBox="117.39999389648438 176.60000610351562 62.100006103515625 57.899993896484375" width="62.100006103515625" height="57.899993896484375" xmlns="http://www.w3.org/2000/svg"><g transform="matrix(1, 0, 0, 1, 0, 0)">
			<path class="st0" d="M143.5,229.5c0,2.8,2.2,5,5,5c2.8,0,5-2.2,5-5s-2.2-5-5-5h-30" style="fill: none; stroke: rgb(204, 204, 204); stroke-width: 2.5; stroke-linecap: round; stroke-linejoin: round; stroke-miterlimit: 10; stroke-opacity: 1;"/>
			<g>
				<path class="st0" d="M156.5,214.5c0-2.8,2.2-5,5-5s5,2.2,5,5s-2.2,5-5,5h-41" style="fill: none; stroke: rgb(204, 204, 204); stroke-width: 2.5; stroke-linecap: round; stroke-linejoin: round; stroke-miterlimit: 10; stroke-opacity: 1;"/>
				<g>
					<path class="st0" d="M170.2,196.1c0-10.8-8.7-19.5-19.5-19.5c-7.4,0-13.9,4.1-17.2,10.2" style="fill: none; stroke: rgb(204, 204, 204); stroke-width: 2.5; stroke-linecap: round; stroke-linejoin: round; stroke-miterlimit: 10; stroke-opacity: 1;"/>
					<path class="st0" d="M170.6,214.6c4.9,0,8.9-4,8.9-8.9c0-4.9-4-8.9-8.9-8.9c-2.7,0-5.1,1.2-6.7,3.1c-0.4,0.4-0.7,0.9-1,1.4&#10;&#9;&#9;&#9;&#9;&#9;&#9;c-0.4,0.7-0.7,1.5-0.9,2.3" style="fill: none; stroke: rgb(204, 204, 204); stroke-width: 2.5; stroke-linecap: round; stroke-linejoin: round; stroke-miterlimit: 10; stroke-opacity: 1;"/>
					<path class="st0" d="M144.9,201.9c0-0.4,0-0.7,0-1.1c0-1-0.1-1.9-0.3-2.8c-0.1-0.5-0.3-1.1-0.4-1.6c-1.8-5.4-7-9.3-13-9.3&#10;&#9;&#9;&#9;&#9;&#9;&#9;c-7.6,0-13.8,6.2-13.8,13.7c0,7.6,6.2,13.8,13.8,13.8h6.6h0h13.9" style="fill: none; stroke: rgb(204, 204, 204); stroke-width: 2.5; stroke-linecap: round; stroke-linejoin: round; stroke-miterlimit: 10; stroke-opacity: 1;"/>
				</g>
			</g>
		</g></svg>